<?xml version="1.0" encoding="UTF-8" standalone="no"?>
<!DOCTYPE svg PUBLIC "-//W3C//DTD SVG 1.1//EN" "http://www.w3.org/Graphics/SVG/1.1/DTD/svg11.dtd">
<!-- Created with Vectornator (http://vectornator.io/) -->
<svg stroke-miterlimit="10" style="fill-rule:nonzero;clip-rule:evenodd;stroke-linecap:round;stroke-linejoin:round;" version="1.1" viewBox="0 0 250 250" xml:space="preserve" xmlns="http://www.w3.org/2000/svg" xmlns:xlink="http://www.w3.org/1999/xlink">
<defs/>
<g id="Untitled">
<g opacity="1">
<path d="M56.4 145.38L88.5 145.38L88.5 145.38L118.8 144.78C144.9 140.88 164.8 118.18 164.8 91.3798C164.8 61.5798 140.6 37.3798 110.8 37.3798L7.5 37.3798L64.2 112.88L95 112.88L56.8 61.9798L110.9 61.9798C127.1 61.9798 140.3 75.1798 140.3 91.2798C140.3 107.48 127.1 120.68 110.9 120.68L7.70001 120.68L22.1 140.28C22.3 140.58 33.7 156.08 48.1 175.68L76.7 214.48L107.3 214.48L104.8 211.08C80.5 178.18 65.6 157.88 56.4 145.38Z" fill="#ffffff" fill-rule="nonzero" opacity="1" stroke="#000000" stroke-linecap="butt" stroke-linejoin="round" stroke-width="5"/>
<path d="M214.8 189.98L152.8 189.98L125.1 153.18L94.3 153.18L140.5 214.68L242.5 214.68L214.8 189.98Z" fill="#ffffff" fill-rule="nonzero" opacity="1" stroke="#000000" stroke-linecap="butt" stroke-linejoin="round" stroke-width="5"/>
</g>
</g>
</svg>
